<?xml version="1.0" standalone="no"?><!DOCTYPE svg PUBLIC "-//W3C//DTD SVG 1.1//EN" "http://www.w3.org/Graphics/SVG/1.1/DTD/svg11.dtd"><svg class="icon" height="512" viewBox="0 0 1141 1024" version="1.1" xmlns="http://www.w3.org/2000/svg"><path d="M908.846 1020.615c-69.536-6.294-197.915-34.86-199.073-160.101-0.436-37.059-16.784-61.966 0-80.898 19.805-22.49 44.746-83.13 53.943-134.858 3.625-20.594 53.155-27.575 53.943-80.915 24.421-26.586-0.169-74.621 0-107.888 0.336-82.561 9.181-161.444-26.972-215.773-107.031-160.789-320.975-159.279-431.547 0-33.87 48.807-27.19 132.878-26.955 215.773 0.084 34.004-28.751 79.623 0 107.888 0 53.591 47.196 51.61 53.927 80.898 12.084 52.533 26.938 107.971 53.943 134.858 26.418 26.284 0.336 43.856 0 80.915-1.207 125.241-129.571 153.757-199.056 160.101-140.733-103.053-232.455-268.978-232.455-456.773-0.017-312.818 253.487-566.388 566.355-566.388 312.834 0 566.405 253.571 566.405 566.388 0 187.811-91.791 353.721-232.458 456.773z" /></svg>